<svg width="500" height="500" viewBox="0 0 500 500" xmlns="http://www.w3.org/2000/svg">
  <path d="M 315.0,10.0 C 306.2,10.6 290.3,13.1 281.7,15.2 C 273.0,17.2 258.5,22.2 250.2,25.5 C 242.0,28.8 227.7,35.7 219.7,40.0 C 211.7,44.3 197.8,52.7 190.2,57.9 C 182.5,63.0 170.4,72.4 162.5,78.5 C 154.6,84.6 138.9,96.3 131.1,103.8 C 123.2,111.3 109.7,126.4 103.4,134.8 C 97.1,143.2 88.0,158.1 83.7,166.7 C 79.3,175.3 73.1,190.6 70.5,199.1 C 68.0,207.6 67.7,222.1 64.4,230.5 C 61.2,239.0 51.5,253.9 46.1,262.4 C 40.7,270.9 28.3,286.5 24.1,294.3 C 19.8,302.2 16.1,313.8 14.2,321.6 C 12.3,329.3 10.2,344.1 10.0,352.5 C 9.8,361.0 11.4,376.2 12.8,384.9 C 14.3,393.6 18.9,408.9 20.8,417.7 C 22.7,426.6 24.6,447.6 26.9,451.1 C 29.2,454.5 36.5,449.0 38.2,443.5 C 39.8,438.1 39.6,418.8 39.1,410.2 C 38.6,401.7 34.7,387.8 34.4,379.3 C 34.1,370.7 35.7,354.0 36.7,346.0 C 37.8,337.9 41.3,319.2 42.4,318.7 C 43.4,318.2 44.2,334.9 44.7,342.2 C 45.3,349.5 45.8,364.9 46.6,373.2 C 47.4,381.4 50.1,395.8 50.8,404.1 C 51.6,412.5 52.8,427.5 52.2,436.0 C 51.7,444.6 45.3,461.3 46.6,468.4 C 47.8,475.5 57.2,489.9 61.6,489.1 C 66.1,488.2 77.6,469.9 79.9,461.8 C 82.2,453.8 79.5,437.3 79.0,428.5 C 78.5,419.8 77.0,404.7 76.2,396.2 C 75.3,387.7 72.3,373.2 72.4,364.7 C 72.5,356.3 74.4,335.9 76.6,332.8 C 78.9,329.7 86.9,337.6 89.3,341.3 C 91.7,345.0 94.4,353.5 94.9,360.5 C 95.4,367.5 93.6,385.7 93.0,393.8 C 92.5,401.9 91.7,413.4 91.2,421.5 C 90.6,429.6 88.1,446.0 88.8,454.3 C 89.5,462.7 92.1,481.6 96.3,484.4 C 100.6,487.2 117.2,481.0 120.7,475.5 C 124.3,469.9 122.8,451.8 123.1,443.1 C 123.3,434.3 120.9,418.1 122.6,409.8 C 124.3,401.4 131.4,387.9 135.7,380.2 C 140.1,372.5 150.2,354.5 155.0,352.1 C 159.7,349.6 168.5,356.3 171.4,361.9 C 174.3,367.5 174.5,385.6 177.0,393.8 C 179.5,402.1 187.2,415.4 190.2,423.8 C 193.1,432.3 196.1,451.4 199.1,457.2 C 202.1,462.9 209.7,470.0 212.7,467.0 C 215.7,464.0 221.1,443.3 221.6,434.6 C 222.1,425.9 217.2,410.6 216.5,401.8 C 215.7,393.0 213.7,376.2 216.0,368.5 C 218.3,360.7 229.1,344.3 233.8,343.6 C 238.5,342.9 245.5,357.7 251.2,363.3 C 256.8,368.9 272.9,387.2 276.0,385.8 C 279.2,384.5 272.2,360.9 274.6,353.0 C 277.1,345.1 287.5,332.2 294.3,326.7 C 301.2,321.2 317.7,315.8 326.2,311.7 C 334.8,307.6 349.9,299.6 358.2,296.2 C 366.4,292.8 381.0,284.0 388.2,286.4 C 395.4,288.7 406.0,305.9 412.1,313.6 C 418.2,321.3 429.8,335.8 433.7,344.1 C 437.6,352.4 440.6,367.4 441.2,376.0 C 441.8,384.6 436.6,401.9 438.4,408.4 C 440.1,414.8 451.0,426.4 454.3,424.3 C 457.7,422.2 461.9,401.4 463.7,392.9 C 465.5,384.3 467.3,368.5 467.9,360.0 C 468.6,351.6 469.5,337.7 468.4,329.5 C 467.4,321.3 463.0,306.6 460.0,298.6 C 457.0,290.5 447.7,276.8 445.9,269.0 C 444.1,261.2 442.8,247.7 446.4,239.9 C 449.9,232.1 467.3,218.4 472.6,210.4 C 478.0,202.3 483.9,188.4 486.2,179.9 C 488.6,171.3 490.4,155.1 490.0,146.5 C 489.6,138.0 486.4,123.8 483.4,115.6 C 480.5,107.4 473.6,93.2 467.9,85.1 C 462.3,76.9 448.2,61.6 440.7,54.6 C 433.2,47.5 419.6,36.9 411.6,32.1 C 403.7,27.2 389.7,20.8 381.1,18.0 C 372.6,15.2 356.7,12.0 347.8,10.9 C 339.0,9.9 323.8,9.4 315.0,10.0 Z" fill="#0AC18E"/>
</svg>